<svg xmlns="http://www.w3.org/2000/svg" viewBox="0 0 760 340" role="img">
<rect width="760" height="340" fill="#fff"/>
<text x="20" y="28" font-family="Georgia,serif" font-size="16" fill="#0f1824">Test macro Dice by year, mean of five seeds</text>
<line x1="70" y1="276.0" x2="710" y2="276.0" stroke="#d8e0e9"/>
<text x="62" y="280.0" text-anchor="end" font-family="Consolas,monospace" font-size="10" fill="#657688">0.35</text>
<line x1="70" y1="232.0" x2="710" y2="232.0" stroke="#d8e0e9"/>
<text x="62" y="236.0" text-anchor="end" font-family="Consolas,monospace" font-size="10" fill="#657688">0.42</text>
<line x1="70" y1="188.0" x2="710" y2="188.0" stroke="#d8e0e9"/>
<text x="62" y="192.0" text-anchor="end" font-family="Consolas,monospace" font-size="10" fill="#657688">0.49</text>
<line x1="70" y1="144.0" x2="710" y2="144.0" stroke="#d8e0e9"/>
<text x="62" y="148.0" text-anchor="end" font-family="Consolas,monospace" font-size="10" fill="#657688">0.56</text>
<line x1="70" y1="100.0" x2="710" y2="100.0" stroke="#d8e0e9"/>
<text x="62" y="104.0" text-anchor="end" font-family="Consolas,monospace" font-size="10" fill="#657688">0.63</text>
<line x1="70" y1="56.0" x2="710" y2="56.0" stroke="#d8e0e9"/>
<text x="62" y="60.0" text-anchor="end" font-family="Consolas,monospace" font-size="10" fill="#657688">0.70</text>
<rect x="93.7" y="261.9" width="18" height="14.1" fill="#14479a"/>
<rect x="117.7" y="291.9" width="18" height="-15.9" fill="#c2680c"/>
<text x="115.7" y="294" text-anchor="middle" font-family="Segoe UI,sans-serif" font-size="12" fill="#0f1824">2013</text>
<text x="115.7" y="310" text-anchor="middle" font-family="Consolas,monospace" font-size="10" fill="#657688">n=14</text>
<rect x="185.1" y="82.7" width="18" height="193.3" fill="#14479a"/>
<rect x="209.1" y="101.8" width="18" height="174.2" fill="#c2680c"/>
<text x="207.1" y="294" text-anchor="middle" font-family="Segoe UI,sans-serif" font-size="12" fill="#0f1824">2014</text>
<text x="207.1" y="310" text-anchor="middle" font-family="Consolas,monospace" font-size="10" fill="#657688">n=7</text>
<rect x="276.6" y="178.0" width="18" height="98.0" fill="#14479a"/>
<rect x="300.6" y="181.3" width="18" height="94.7" fill="#c2680c"/>
<text x="298.6" y="294" text-anchor="middle" font-family="Segoe UI,sans-serif" font-size="12" fill="#0f1824">2015</text>
<text x="298.6" y="310" text-anchor="middle" font-family="Consolas,monospace" font-size="10" fill="#657688">n=17</text>
<rect x="368.0" y="160.6" width="18" height="115.4" fill="#14479a"/>
<rect x="392.0" y="163.7" width="18" height="112.3" fill="#c2680c"/>
<text x="390.0" y="294" text-anchor="middle" font-family="Segoe UI,sans-serif" font-size="12" fill="#0f1824">2016</text>
<text x="390.0" y="310" text-anchor="middle" font-family="Consolas,monospace" font-size="10" fill="#657688">n=32</text>
<rect x="459.4" y="214.1" width="18" height="61.9" fill="#14479a"/>
<rect x="483.4" y="220.7" width="18" height="55.3" fill="#c2680c"/>
<text x="481.4" y="294" text-anchor="middle" font-family="Segoe UI,sans-serif" font-size="12" fill="#0f1824">2017</text>
<text x="481.4" y="310" text-anchor="middle" font-family="Consolas,monospace" font-size="10" fill="#657688">n=42</text>
<rect x="550.9" y="151.1" width="18" height="124.9" fill="#14479a"/>
<rect x="574.9" y="149.5" width="18" height="126.5" fill="#c2680c"/>
<text x="572.9" y="294" text-anchor="middle" font-family="Segoe UI,sans-serif" font-size="12" fill="#0f1824">2018</text>
<text x="572.9" y="310" text-anchor="middle" font-family="Consolas,monospace" font-size="10" fill="#657688">n=16</text>
<rect x="642.3" y="84.0" width="18" height="192.0" fill="#14479a"/>
<rect x="666.3" y="84.9" width="18" height="191.1" fill="#c2680c"/>
<text x="664.3" y="294" text-anchor="middle" font-family="Segoe UI,sans-serif" font-size="12" fill="#0f1824">2019</text>
<text x="664.3" y="310" text-anchor="middle" font-family="Consolas,monospace" font-size="10" fill="#657688">n=33</text>
<rect x="70" y="312" width="12" height="12" fill="#14479a"/><text x="88" y="322" font-size="12" font-family="Segoe UI,sans-serif" fill="#0f1824">Attention U-Net</text>
<rect x="230" y="312" width="12" height="12" fill="#c2680c"/><text x="248" y="322" font-size="12" font-family="Segoe UI,sans-serif" fill="#0f1824">U-Net</text>
</svg>